<svg width="87" height="87" viewBox="0 0 87 87" fill="none" xmlns="http://www.w3.org/2000/svg">
<g filter="url(#filter0_d)">
<path fill-rule="evenodd" clip-rule="evenodd" d="M43.1241 0C64.7317 0 82.2481 17.5166 82.2481 39.1244C82.2481 60.7316 64.7317 78.2481 43.1241 78.2481C21.5166 78.2481 4 60.7316 4 39.1244C4 17.5166 21.5166 0 43.1241 0Z" fill="white"/>
<path fill-rule="evenodd" clip-rule="evenodd" d="M43.1241 0C64.7317 0 82.2481 17.5166 82.2481 39.1244C82.2481 60.7316 64.7317 78.2481 43.1241 78.2481C21.5166 78.2481 4 60.7316 4 39.1244C4 17.5166 21.5166 0 43.1241 0Z" fill="#E1E1E1"/>
<g clip-path="url(#clip0)">
<path d="M46.138 43.51C47.094 43.201 48.318 45.55 49.621 46.449C50.599 47.13 51.348 46.983 51.348 46.983L54.821 46.933C54.821 46.933 56.636 46.821 55.778 45.379C55.707 45.259 55.275 44.31 53.193 42.357C51.016 40.314 51.311 40.645 53.932 37.113C55.529 34.96 56.168 33.645 55.968 33.085C55.776 32.546 54.603 32.686 54.603 32.686L50.69 32.713C50.309 32.714 49.986 32.832 49.839 33.228C49.836 33.232 49.218 34.894 48.394 36.307C46.653 39.296 45.958 39.455 45.67 39.268C45.009 38.835 45.176 37.531 45.176 36.604C45.176 33.707 45.608 32.499 44.33 32.187C43.903 32.083 43.591 32.015 42.502 32.005C41.11 31.984 39.928 32.005 39.258 32.334C38.813 32.557 38.472 33.046 38.679 33.074C38.939 33.109 39.522 33.234 39.834 33.66C40.235 34.212 40.223 35.449 40.223 35.449C40.223 35.449 40.452 38.86 39.683 39.283C39.155 39.573 38.433 38.981 36.88 36.267C36.087 34.879 35.488 33.345 35.488 33.345C35.488 33.345 35.372 33.06 35.162 32.904C34.912 32.719 34.562 32.66 34.562 32.66L30.848 32.684C30.848 32.684 30.29 32.7 30.085 32.946C29.903 33.164 30.07 33.614 30.07 33.614C30.07 33.614 32.979 40.495 36.273 43.961C39.293 47.143 42.725 46.932 42.725 46.932H44.28C44.28 46.932 44.749 46.878 44.989 46.62C45.213 46.38 45.203 45.929 45.203 45.929C45.203 45.929 45.172 43.82 46.138 43.51Z" fill="white"/>
</g>
</g>
<defs>
<filter id="filter0_d" x="0" y="0" width="86.2481" height="86.2481" filterUnits="userSpaceOnUse" color-interpolation-filters="sRGB">
<feFlood flood-opacity="0" result="BackgroundImageFix"/>
<feColorMatrix in="SourceAlpha" type="matrix" values="0 0 0 0 0 0 0 0 0 0 0 0 0 0 0 0 0 0 127 0"/>
<feOffset dy="4"/>
<feGaussianBlur stdDeviation="2"/>
<feColorMatrix type="matrix" values="0 0 0 0 0 0 0 0 0 0 0 0 0 0 0 0 0 0 0.25 0"/>
<feBlend mode="normal" in2="BackgroundImageFix" result="effect1_dropShadow"/>
<feBlend mode="normal" in="SourceGraphic" in2="effect1_dropShadow" result="shape"/>
</filter>
<clipPath id="clip0">
<rect width="27" height="15" fill="white" transform="translate(30 32)"/>
</clipPath>
</defs>
</svg>
